<?xml version="1.0" encoding="utf-8"?>
<!-- Generator: Adobe Illustrator 16.0.0, SVG Export Plug-In . SVG Version: 6.00 Build 0)  -->
<!DOCTYPE svg PUBLIC "-//W3C//DTD SVG 1.1//EN" "http://www.w3.org/Graphics/SVG/1.1/DTD/svg11.dtd" [
	<!ENTITY ns_flows "http://ns.adobe.com/Flows/1.0/">
	<!ENTITY ns_extend "http://ns.adobe.com/Extensibility/1.0/">
	<!ENTITY ns_ai "http://ns.adobe.com/AdobeIllustrator/10.0/">
	<!ENTITY ns_graphs "http://ns.adobe.com/Graphs/1.0/">
]>
<svg version="1.1" id="Layer_1" xmlns:x="&ns_extend;" xmlns:i="&ns_ai;" xmlns:graph="&ns_graphs;"
	 xmlns="http://www.w3.org/2000/svg" xmlns:xlink="http://www.w3.org/1999/xlink" xmlns:a="http://ns.adobe.com/AdobeSVGViewerExtensions/3.0/"
	 x="0px" y="0px" width="800px" height="800px" viewBox="0 0 800 800" enable-background="new 0 0 800 800" xml:space="preserve">
<g id="Logo">
	<polygon id="Fill-2" fill="#C80000" points="17.524,525.643 268.81,525.643 268.81,274.357 17.524,274.357 	"/>
	<g id="Group-31" transform="translate(7.000000, 47.000000)">
		<path id="Fill-3" fill="#FFFFFF" d="M135.549,365.938h-13.361c-0.288,0-0.542,0.146-0.689,0.367
			c-1.654,2.85-5.323,7.469-12.286,7.469c-9.109,0-14.742-7.961-14.742-16.213c0-7.733,5.262-15.913,14.673-15.913
			c6.45,0,10.411,3.972,12.401,7.658c0.024,0.047,0.056,0.099,0.081,0.15c0.151,0.212,0.401,0.355,0.689,0.355h13.385
			c0.45,0,0.82-0.37,0.82-0.818c0-0.072-0.01-0.141-0.028-0.208c-0.011-0.041-0.023-0.079-0.036-0.114
			c-2.644-8.396-11.642-19.25-27.244-19.25c-17.926,0-28.746,14.288-28.746,28.216c0,14.729,11.708,28.363,28.897,28.363
			c12.368,0,22.977-7.449,26.937-18.912c0.009-0.023,0.018-0.041,0.025-0.066c0.029-0.082,0.043-0.166,0.043-0.258
			C136.371,366.311,135.996,365.938,135.549,365.938"/>
		<path id="Fill-5" fill="#FFFFFF" d="M195.007,365.938h-13.361c-0.287,0-0.542,0.146-0.688,0.367
			c-1.654,2.85-5.324,7.469-12.281,7.469c-9.114,0-14.745-7.961-14.745-16.213c0-7.733,5.261-15.913,14.673-15.913
			c6.45,0,10.41,3.972,12.399,7.658c0.029,0.047,0.056,0.099,0.084,0.15c0.148,0.212,0.4,0.355,0.686,0.355h13.385
			c0.451,0,0.821-0.37,0.821-0.818c0-0.072-0.006-0.141-0.027-0.208c-0.012-0.041-0.024-0.079-0.037-0.114
			c-2.642-8.396-11.639-19.25-27.239-19.25c-17.93,0-28.749,14.288-28.749,28.216c0,14.729,11.708,28.363,28.895,28.363
			c12.373,0,22.977-7.449,26.938-18.912c0.007-0.023,0.017-0.041,0.021-0.066c0.027-0.082,0.046-0.166,0.046-0.258
			C195.827,366.311,195.458,365.938,195.007,365.938"/>
		<path id="Fill-7" fill="#FFFFFF" d="M59.864,365.455l-0.031-0.096l-5.042-16.823c-0.06-0.217-0.255-0.376-0.491-0.376
			c-0.229,0-0.42,0.145-0.475,0.36l-5.077,16.864l-0.021,0.068c-0.009,0.029-0.01,0.061-0.01,0.096c0,0.27,0.219,0.482,0.49,0.482
			h10.176c0.274,0,0.491-0.213,0.491-0.482C59.873,365.514,59.868,365.488,59.864,365.455z M63.919,377.59
			c-0.125-0.301-0.419-0.51-0.765-0.51H45.287c-0.341,0-0.638,0.209-0.765,0.51l-2.519,6.869l-0.004,0.008
			c-0.123,0.295-0.42,0.496-0.752,0.496H27.999c-0.457,0-0.829-0.365-0.829-0.814c0-0.107,0.022-0.207,0.059-0.299l0.014-0.037
			l21.32-52.822l0.026-0.06c0.129-0.28,0.417-0.479,0.752-0.479h9.93c0.322,0,0.606,0.19,0.737,0.463l0.044,0.103l21.079,52.772
			l0.045,0.107c0.027,0.078,0.042,0.158,0.042,0.252c0,0.449-0.37,0.814-0.821,0.814H67.012c-0.346,0-0.638-0.201-0.766-0.496
			l-0.009-0.02L63.919,377.59z"/>
		<path id="Fill-9" fill="#FFFFFF" d="M228.315,365.455l-0.033-0.096l-5.042-16.823c-0.06-0.217-0.254-0.376-0.492-0.376
			c-0.228,0-0.419,0.145-0.472,0.36l-5.077,16.864l-0.022,0.068c-0.008,0.029-0.011,0.061-0.011,0.096
			c0,0.27,0.219,0.482,0.49,0.482h10.18c0.27,0,0.487-0.213,0.487-0.482C228.323,365.514,228.318,365.488,228.315,365.455z
			 M232.369,377.59c-0.125-0.301-0.42-0.51-0.765-0.51h-17.867c-0.342,0-0.636,0.209-0.765,0.51l-2.52,6.869l-0.004,0.008
			c-0.127,0.295-0.417,0.496-0.756,0.496h-13.242c-0.457,0-0.829-0.365-0.829-0.814c0-0.107,0.021-0.207,0.059-0.299l0.013-0.037
			l21.321-52.822l0.026-0.06c0.129-0.28,0.416-0.479,0.753-0.479h9.93c0.32,0,0.605,0.19,0.735,0.463l0.045,0.103l21.083,52.772
			l0.041,0.107c0.027,0.078,0.042,0.158,0.042,0.252c0,0.449-0.37,0.814-0.821,0.814h-13.385c-0.346,0-0.641-0.201-0.765-0.496
			l-0.008-0.02L232.369,377.59z"/>
		<polygon id="Fill-11" fill="#231F20" points="333.215,379.5 338.405,379.5 338.69,341.078 326.94,341.078 326.651,348.39 
			319.445,348.39 319.731,335.2 365.514,335.2 365.803,348.39 358.589,348.39 358.302,341.078 346.77,341.078 346.48,379.5 
			352.32,379.5 352.32,385.379 333.215,385.379 		"/>
		<path id="Fill-13" fill="#231F20" d="M369.027,379.5h4.254l0.289-43.369h-5.409v-5.878h13.77l-0.212,17.849
			c0,2.508-0.431,5.089-0.937,8.246h0.145c1.511-4.803,5.691-9.103,13.194-9.103c8.796,0,13.048,5.518,13.048,14.408
			c0,5.951-0.218,11.902-0.289,17.848h4.902v5.879h-17.231V379.5h4.254c0.074-5.447,0.29-10.961,0.29-16.414
			c0-5.234-2.456-9.105-7.573-9.105c-5.549,0-9.734,4.373-9.875,11.326l-0.288,14.193h5.042v5.879h-17.374V379.5z"/>
		<path id="Fill-15" fill="#231F20" d="M425.523,329.392c3.105,0,5.554,2.437,5.554,5.521c0,3.082-2.448,5.519-5.554,5.519
			c-3.097,0-5.547-2.437-5.547-5.519C419.977,331.829,422.427,329.392,425.523,329.392z M416.442,379.5h4.9l0.144-25.519h-5.69
			v-5.877h13.771l-0.144,31.396h5.044v5.883h-18.024V379.5z"/>
		<path id="Fill-17" fill="#231F20" d="M439.786,379.5h4.253l0.146-25.519h-5.262v-5.879h13.34c0,2.508-0.216,5.089-0.722,8.246
			h0.144c1.513-4.803,5.69-9.103,13.193-9.103c8.794,0,13.05,5.518,13.05,14.408c0,5.951-0.219,11.902-0.291,17.848h4.903v5.879
			h-17.23V379.5h4.253c0.072-5.447,0.29-10.961,0.29-16.414c0-5.234-2.452-9.105-7.574-9.105c-5.547,0-9.733,4.373-9.871,11.326
			L452.12,379.5h5.044v5.879h-17.378V379.5z"/>
		<polygon id="Fill-19" fill="#231F20" points="487.567,379.5 492.107,379.5 492.398,336.131 485.839,336.131 485.839,330.253 
			500.473,330.253 500.186,364.307 513.453,354.125 513.453,353.981 508.116,353.981 508.116,348.102 525.71,348.102 
			525.71,353.981 521.959,353.981 508.547,365.02 523.044,379.5 527.294,379.5 527.294,385.379 509.27,385.379 509.27,379.5 
			513.669,379.5 500.186,366.453 500.186,379.5 504.729,379.5 504.729,385.379 487.567,385.379 		"/>
		<path id="Fill-21" fill="#231F20" d="M575.719,346.525c-0.794-2.22-1.082-3.512-1.297-4.586h-0.147
			c-0.219,1.003-0.506,2.366-1.369,4.586l-5.553,14.195h13.341L575.719,346.525z M547.96,379.5h4.328l18.312-44.3h8.938l16.943,44.3
			h4.469v5.883h-18.456V379.5h4.615l-4.325-12.473h-17.736l-4.685,12.473h5.19v5.883H547.96V379.5z"/>
		<path id="Fill-23" fill="#231F20" d="M605.247,379.5h4.256l0.284-43.369h-5.403v-5.878h13.769l-0.213,17.849
			c0,2.508-0.431,5.089-0.938,8.246h0.144c1.514-4.803,5.695-9.103,13.194-9.103c8.794,0,13.049,5.518,13.049,14.408
			c0,5.951-0.219,11.902-0.29,17.848h4.906v5.879h-17.234V379.5h4.253c0.075-5.447,0.29-10.961,0.29-16.414
			c0-5.234-2.451-9.105-7.57-9.105c-5.55,0-9.737,4.373-9.875,11.326l-0.287,14.193h5.043v5.879h-17.377V379.5z"/>
		<path id="Fill-25" fill="#231F20" d="M679.268,362.584v-0.717c0-3.082-2.019-8.748-8.866-8.748c-6.853,0-9.155,4.947-9.445,9.464
			H679.268z M685.396,383.656c-2.594,1.08-7.572,2.586-13.196,2.586c-12.397-0.072-19.753-7.674-19.753-19.357
			c0-11.041,6.274-19.64,18.38-19.64c11.254,0,16.946,8.171,16.946,19.712v1.078h-26.816c0.071,7.236,5.403,11.896,12.831,11.896
			c4.689,0,8.797-1.223,12.039-2.863L685.396,383.656z"/>
		<path id="Fill-27" fill="#231F20" d="M708.158,379.932c6.275,0,9.661-4.732,9.661-9.465v-1.5
			c-8.361,0.07-15.646,0.424-15.646,5.943C702.174,377.711,704.336,379.932,708.158,379.932z M695.687,350.612
			c2.019-0.931,6.846-3.369,14.853-3.369c11.104,0,14.63,5.448,14.63,14.263c0,6.025-0.215,11.977-0.287,17.994h5.048v5.883h-11.894
			c0-2.367,0.216-5.236,0.649-7.742h-0.144c-1.591,4.229-4.615,8.602-12.475,8.602c-9.013,0-11.969-5.951-11.969-10.684
			c0-9.82,10.021-11.109,16.15-11.396l7.714-0.432v-2.795c0-4.588-1.658-7.813-8.29-7.813c-2.815,0-5.553,0.787-6.78,1.29v5.449
			h-7.206V350.612z"/>
		<path id="Fill-29" fill="#231F20" d="M762.501,355.127c-1.659-1.002-4.188-1.577-7.14-1.577c-7.427,0-11.606,6.452-11.606,13.766
			c0,6.951,3.027,12.184,9.084,12.184c6.487,0,9.662-5.305,9.662-13.979V355.127z M775.476,385.383h-12.69
			c0-2.654,0.359-5.451,0.723-7.602h-0.146c-1.946,5.02-6.055,8.461-12.47,8.461c-9.013,0-15.647-6.6-15.647-17.703
			c0-12.334,7.357-21.296,20.116-21.296c2.665,0,5.189,0.357,7.424,0.859l0.144-11.971h-6.847v-5.879h14.638l-0.288,49.248h5.044
			V385.383z"/>
	</g>
</g>
</svg>
